<svg id="visual" viewBox="0 0 900 600" width="900" height="600" xmlns="http://www.w3.org/2000/svg" xmlns:xlink="http://www.w3.org/1999/xlink" version="1.1"><path d="M0 133L10.7 123C21.3 113 42.7 93 64.2 85C85.7 77 107.3 81 128.8 83C150.3 85 171.7 85 193 94C214.3 103 235.7 121 257 125C278.3 129 299.7 119 321.2 115C342.7 111 364.3 113 385.8 105C407.3 97 428.7 79 450 84C471.3 89 492.7 117 514.2 119C535.7 121 557.3 97 578.8 97C600.3 97 621.7 121 643 134C664.3 147 685.7 149 707 143C728.3 137 749.7 123 771.2 126C792.7 129 814.3 149 835.8 140C857.3 131 878.7 93 889.3 74L900 55L900 0L889.3 0C878.7 0 857.3 0 835.8 0C814.3 0 792.7 0 771.2 0C749.7 0 728.3 0 707 0C685.7 0 664.3 0 643 0C621.7 0 600.3 0 578.8 0C557.3 0 535.7 0 514.2 0C492.7 0 471.3 0 450 0C428.7 0 407.3 0 385.8 0C364.3 0 342.7 0 321.2 0C299.7 0 278.3 0 257 0C235.7 0 214.3 0 193 0C171.7 0 150.3 0 128.8 0C107.3 0 85.7 0 64.2 0C42.7 0 21.3 0 10.7 0L0 0Z" fill="#ffffff"></path><path d="M0 175L10.7 175C21.3 175 42.7 175 64.2 168C85.7 161 107.3 147 128.8 143C150.3 139 171.7 145 193 159C214.3 173 235.7 195 257 195C278.3 195 299.7 173 321.2 171C342.7 169 364.3 187 385.8 192C407.3 197 428.7 189 450 185C471.3 181 492.7 181 514.2 173C535.7 165 557.3 149 578.8 155C600.3 161 621.7 189 643 204C664.3 219 685.7 221 707 219C728.3 217 749.7 211 771.2 215C792.7 219 814.3 233 835.8 221C857.3 209 878.7 171 889.3 152L900 133L900 53L889.3 72C878.7 91 857.3 129 835.8 138C814.3 147 792.7 127 771.2 124C749.7 121 728.3 135 707 141C685.7 147 664.3 145 643 132C621.7 119 600.3 95 578.8 95C557.3 95 535.7 119 514.2 117C492.7 115 471.3 87 450 82C428.7 77 407.3 95 385.8 103C364.3 111 342.7 109 321.2 113C299.7 117 278.3 127 257 123C235.7 119 214.3 101 193 92C171.7 83 150.3 83 128.8 81C107.3 79 85.7 75 64.2 83C42.7 91 21.3 111 10.7 121L0 131Z" fill="#e1f1f8"></path><path d="M0 247L10.7 244C21.3 241 42.7 235 64.2 232C85.7 229 107.3 229 128.8 226C150.3 223 171.7 217 193 221C214.3 225 235.7 239 257 235C278.3 231 299.7 209 321.2 214C342.7 219 364.3 251 385.8 262C407.3 273 428.7 263 450 263C471.3 263 492.7 273 514.2 262C535.7 251 557.3 219 578.8 218C600.3 217 621.7 247 643 260C664.3 273 685.7 269 707 269C728.3 269 749.7 273 771.2 276C792.7 279 814.3 281 835.8 269C857.3 257 878.7 231 889.3 218L900 205L900 131L889.3 150C878.7 169 857.3 207 835.8 219C814.3 231 792.7 217 771.2 213C749.7 209 728.3 215 707 217C685.7 219 664.3 217 643 202C621.7 187 600.3 159 578.8 153C557.3 147 535.7 163 514.2 171C492.7 179 471.3 179 450 183C428.7 187 407.3 195 385.8 190C364.3 185 342.7 167 321.2 169C299.7 171 278.3 193 257 193C235.7 193 214.3 171 193 157C171.7 143 150.3 137 128.8 141C107.3 145 85.7 159 64.2 166C42.7 173 21.3 173 10.7 173L0 173Z" fill="#c2e3f1"></path><path d="M0 415L10.7 404C21.3 393 42.7 371 64.2 372C85.7 373 107.3 397 128.8 414C150.3 431 171.7 441 193 435C214.3 429 235.7 407 257 393C278.3 379 299.7 373 321.2 381C342.7 389 364.3 411 385.8 408C407.3 405 428.7 377 450 377C471.3 377 492.7 405 514.2 410C535.7 415 557.3 397 578.8 412C600.3 427 621.7 475 643 478C664.3 481 685.7 439 707 416C728.3 393 749.7 389 771.2 402C792.7 415 814.3 445 835.8 462C857.3 479 878.7 483 889.3 485L900 487L900 203L889.3 216C878.7 229 857.3 255 835.8 267C814.3 279 792.7 277 771.2 274C749.7 271 728.3 267 707 267C685.7 267 664.3 271 643 258C621.7 245 600.3 215 578.8 216C557.3 217 535.7 249 514.2 260C492.7 271 471.3 261 450 261C428.7 261 407.3 271 385.8 260C364.3 249 342.7 217 321.2 212C299.7 207 278.3 229 257 233C235.7 237 214.3 223 193 219C171.7 215 150.3 221 128.8 224C107.3 227 85.7 227 64.2 230C42.7 233 21.3 239 10.7 242L0 245Z" fill="#a2d5ea"></path><path d="M0 601L10.7 601C21.3 601 42.7 601 64.2 601C85.7 601 107.3 601 128.8 601C150.3 601 171.7 601 193 601C214.3 601 235.7 601 257 601C278.3 601 299.7 601 321.2 601C342.7 601 364.3 601 385.8 601C407.3 601 428.7 601 450 601C471.3 601 492.7 601 514.2 601C535.7 601 557.3 601 578.8 601C600.3 601 621.7 601 643 601C664.3 601 685.7 601 707 601C728.3 601 749.7 601 771.2 601C792.7 601 814.3 601 835.8 601C857.3 601 878.7 601 889.3 601L900 601L900 485L889.3 483C878.7 481 857.3 477 835.8 460C814.3 443 792.7 413 771.2 400C749.7 387 728.3 391 707 414C685.7 437 664.3 479 643 476C621.7 473 600.3 425 578.8 410C557.3 395 535.7 413 514.2 408C492.7 403 471.3 375 450 375C428.7 375 407.3 403 385.8 406C364.3 409 342.7 387 321.2 379C299.7 371 278.3 377 257 391C235.7 405 214.3 427 193 433C171.7 439 150.3 429 128.8 412C107.3 395 85.7 371 64.2 370C42.7 369 21.3 391 10.7 402L0 413Z" fill="#7ec8e3"></path></svg>