<svg id="visual" viewBox="0 0 900 600" width="900" height="600" xmlns="http://www.w3.org/2000/svg" xmlns:xlink="http://www.w3.org/1999/xlink" version="1.1"><path d="M0 139L13.7 166C27.3 193 54.7 247 82 248C109.3 249 136.7 197 163.8 206C191 215 218 285 245.2 295C272.3 305 299.7 255 327 212C354.3 169 381.7 133 409 131C436.3 129 463.7 161 491 183C518.3 205 545.7 217 573 206C600.3 195 627.7 161 654.8 147C682 133 709 139 736.2 157C763.3 175 790.7 205 818 228C845.3 251 872.7 267 886.3 275L900 283L900 0L886.3 0C872.7 0 845.3 0 818 0C790.7 0 763.3 0 736.2 0C709 0 682 0 654.8 0C627.7 0 600.3 0 573 0C545.7 0 518.3 0 491 0C463.7 0 436.3 0 409 0C381.7 0 354.3 0 327 0C299.7 0 272.3 0 245.2 0C218 0 191 0 163.8 0C136.7 0 109.3 0 82 0C54.7 0 27.3 0 13.7 0L0 0Z" fill="#ffffff"></path><path d="M0 211L13.7 254C27.3 297 54.7 383 82 400C109.3 417 136.7 365 163.8 360C191 355 218 397 245.2 400C272.3 403 299.7 367 327 344C354.3 321 381.7 311 409 306C436.3 301 463.7 301 491 307C518.3 313 545.7 325 573 310C600.3 295 627.7 253 654.8 254C682 255 709 299 736.2 333C763.3 367 790.7 391 818 410C845.3 429 872.7 443 886.3 450L900 457L900 281L886.3 273C872.7 265 845.3 249 818 226C790.7 203 763.3 173 736.2 155C709 137 682 131 654.8 145C627.7 159 600.3 193 573 204C545.7 215 518.3 203 491 181C463.7 159 436.3 127 409 129C381.7 131 354.3 167 327 210C299.7 253 272.3 303 245.2 293C218 283 191 213 163.8 204C136.7 195 109.3 247 82 246C54.7 245 27.3 191 13.7 164L0 137Z" fill="#7ec8e3"></path><path d="M0 601L13.7 601C27.3 601 54.7 601 82 601C109.3 601 136.7 601 163.8 601C191 601 218 601 245.2 601C272.3 601 299.7 601 327 601C354.3 601 381.7 601 409 601C436.3 601 463.7 601 491 601C518.3 601 545.7 601 573 601C600.3 601 627.7 601 654.8 601C682 601 709 601 736.2 601C763.3 601 790.7 601 818 601C845.3 601 872.7 601 886.3 601L900 601L900 455L886.3 448C872.7 441 845.3 427 818 408C790.7 389 763.3 365 736.2 331C709 297 682 253 654.8 252C627.7 251 600.3 293 573 308C545.7 323 518.3 311 491 305C463.7 299 436.3 299 409 304C381.7 309 354.3 319 327 342C299.7 365 272.3 401 245.2 398C218 395 191 353 163.8 358C136.7 363 109.3 415 82 398C54.7 381 27.3 295 13.7 252L0 209Z" fill="#ffffff"></path></svg>