<svg id="visual" viewBox="0 0 900 600" width="900" height="600" xmlns="http://www.w3.org/2000/svg" xmlns:xlink="http://www.w3.org/1999/xlink" version="1.1"><path d="M0 139L13.7 180C27.3 221 54.7 303 82 319C109.3 335 136.7 285 163.8 262C191 239 218 243 245.2 257C272.3 271 299.7 295 327 297C354.3 299 381.7 279 409 265C436.3 251 463.7 243 491 232C518.3 221 545.7 207 573 217C600.3 227 627.7 261 654.8 277C682 293 709 291 736.2 298C763.3 305 790.7 321 818 309C845.3 297 872.7 257 886.3 237L900 217L900 0L886.3 0C872.7 0 845.3 0 818 0C790.7 0 763.3 0 736.2 0C709 0 682 0 654.8 0C627.7 0 600.3 0 573 0C545.7 0 518.3 0 491 0C463.7 0 436.3 0 409 0C381.7 0 354.3 0 327 0C299.7 0 272.3 0 245.2 0C218 0 191 0 163.8 0C136.7 0 109.3 0 82 0C54.7 0 27.3 0 13.7 0L0 0Z" fill="#ffffff"></path><path d="M0 385L13.7 409C27.3 433 54.7 481 82 485C109.3 489 136.7 449 163.8 440C191 431 218 453 245.2 466C272.3 479 299.7 483 327 485C354.3 487 381.7 487 409 479C436.3 471 463.7 455 491 449C518.3 443 545.7 447 573 457C600.3 467 627.7 483 654.8 477C682 471 709 443 736.2 448C763.3 453 790.7 491 818 487C845.3 483 872.7 437 886.3 414L900 391L900 215L886.3 235C872.7 255 845.3 295 818 307C790.7 319 763.3 303 736.2 296C709 289 682 291 654.8 275C627.7 259 600.3 225 573 215C545.7 205 518.3 219 491 230C463.7 241 436.3 249 409 263C381.7 277 354.3 297 327 295C299.7 293 272.3 269 245.2 255C218 241 191 237 163.8 260C136.7 283 109.3 333 82 317C54.7 301 27.3 219 13.7 178L0 137Z" fill="#7ec8e3"></path><path d="M0 601L13.7 601C27.3 601 54.7 601 82 601C109.3 601 136.7 601 163.8 601C191 601 218 601 245.2 601C272.3 601 299.7 601 327 601C354.3 601 381.7 601 409 601C436.3 601 463.7 601 491 601C518.3 601 545.7 601 573 601C600.3 601 627.7 601 654.8 601C682 601 709 601 736.2 601C763.3 601 790.7 601 818 601C845.3 601 872.7 601 886.3 601L900 601L900 389L886.3 412C872.7 435 845.3 481 818 485C790.7 489 763.3 451 736.2 446C709 441 682 469 654.8 475C627.7 481 600.3 465 573 455C545.7 445 518.3 441 491 447C463.7 453 436.3 469 409 477C381.7 485 354.3 485 327 483C299.7 481 272.3 477 245.2 464C218 451 191 429 163.8 438C136.7 447 109.3 487 82 483C54.7 479 27.3 431 13.7 407L0 383Z" fill="#ffffff"></path></svg>