<svg id="visual" viewBox="0 0 900 600" width="900" height="600" xmlns="http://www.w3.org/2000/svg" xmlns:xlink="http://www.w3.org/1999/xlink" version="1.1"><rect x="0" y="0" width="900" height="600" fill="#7EC8E3"></rect><path d="M0 464L21.5 455.7C43 447.3 86 430.7 128.8 418.5C171.7 406.3 214.3 398.7 257.2 411.3C300 424 343 457 385.8 456.5C428.7 456 471.3 422 514.2 416.8C557 411.7 600 435.3 642.8 440.5C685.7 445.7 728.3 432.3 771.2 433.7C814 435 857 451 878.5 459L900 467L900 601L878.5 601C857 601 814 601 771.2 601C728.3 601 685.7 601 642.8 601C600 601 557 601 514.2 601C471.3 601 428.7 601 385.8 601C343 601 300 601 257.2 601C214.3 601 171.7 601 128.8 601C86 601 43 601 21.5 601L0 601Z" fill="#ffffff" stroke-linecap="round" stroke-linejoin="miter"></path></svg>