<svg id="visual" viewBox="0 0 900 600" width="900" height="600" xmlns="http://www.w3.org/2000/svg" xmlns:xlink="http://www.w3.org/1999/xlink" version="1.1"><path d="M0 49L10 52C20 55 40 61 60 59C80 57 100 47 120 47C140 47 160 57 180 64C200 71 220 75 240 77C260 79 280 79 300 78C320 77 340 75 360 72C380 69 400 65 420 64C440 63 460 65 480 65C500 65 520 63 540 56C560 49 580 37 600 33C620 29 640 33 660 41C680 49 700 61 720 66C740 71 760 69 780 67C800 65 820 63 840 63C860 63 880 65 890 66L900 67L900 0L890 0C880 0 860 0 840 0C820 0 800 0 780 0C760 0 740 0 720 0C700 0 680 0 660 0C640 0 620 0 600 0C580 0 560 0 540 0C520 0 500 0 480 0C460 0 440 0 420 0C400 0 380 0 360 0C340 0 320 0 300 0C280 0 260 0 240 0C220 0 200 0 180 0C160 0 140 0 120 0C100 0 80 0 60 0C40 0 20 0 10 0L0 0Z" fill="#935bf5"></path><path d="M0 199L10 204C20 209 40 219 60 229C80 239 100 249 120 248C140 247 160 235 180 221C200 207 220 191 240 189C260 187 280 199 300 201C320 203 340 195 360 191C380 187 400 187 420 201C440 215 460 243 480 264C500 285 520 299 540 275C560 251 580 189 600 154C620 119 640 111 660 129C680 147 700 191 720 208C740 225 760 215 780 209C800 203 820 201 840 198C860 195 880 191 890 189L900 187L900 65L890 64C880 63 860 61 840 61C820 61 800 63 780 65C760 67 740 69 720 64C700 59 680 47 660 39C640 31 620 27 600 31C580 35 560 47 540 54C520 61 500 63 480 63C460 63 440 61 420 62C400 63 380 67 360 70C340 73 320 75 300 76C280 77 260 77 240 75C220 73 200 69 180 62C160 55 140 45 120 45C100 45 80 55 60 57C40 59 20 53 10 50L0 47Z" fill="#8345f2"></path><path d="M0 319L10 326C20 333 40 347 60 345C80 343 100 325 120 310C140 295 160 283 180 272C200 261 220 251 240 253C260 255 280 269 300 271C320 273 340 263 360 258C380 253 400 253 420 269C440 285 460 317 480 341C500 365 520 381 540 357C560 333 580 269 600 230C620 191 640 177 660 196C680 215 700 267 720 282C740 297 760 275 780 269C800 263 820 273 840 282C860 291 880 299 890 303L900 307L900 185L890 187C880 189 860 193 840 196C820 199 800 201 780 207C760 213 740 223 720 206C700 189 680 145 660 127C640 109 620 117 600 152C580 187 560 249 540 273C520 297 500 283 480 262C460 241 440 213 420 199C400 185 380 185 360 189C340 193 320 201 300 199C280 197 260 185 240 187C220 189 200 205 180 219C160 233 140 245 120 246C100 247 80 237 60 227C40 217 20 207 10 202L0 197Z" fill="#712cef"></path><path d="M0 355L10 361C20 367 40 379 60 376C80 373 100 355 120 343C140 331 160 325 180 314C200 303 220 287 240 286C260 285 280 299 300 304C320 309 340 305 360 302C380 299 400 297 420 309C440 321 460 347 480 369C500 391 520 409 540 388C560 367 580 307 600 273C620 239 640 231 660 248C680 265 700 307 720 320C740 333 760 317 780 316C800 315 820 329 840 335C860 341 880 339 890 338L900 337L900 305L890 301C880 297 860 289 840 280C820 271 800 261 780 267C760 273 740 295 720 280C700 265 680 213 660 194C640 175 620 189 600 228C580 267 560 331 540 355C520 379 500 363 480 339C460 315 440 283 420 267C400 251 380 251 360 256C340 261 320 271 300 269C280 267 260 253 240 251C220 249 200 259 180 270C160 281 140 293 120 308C100 323 80 341 60 343C40 345 20 331 10 324L0 317Z" fill="#5d00ec"></path><path d="M0 409L10 412C20 415 40 421 60 424C80 427 100 427 120 421C140 415 160 403 180 391C200 379 220 367 240 363C260 359 280 363 300 370C320 377 340 387 360 390C380 393 400 389 420 399C440 409 460 433 480 446C500 459 520 461 540 443C560 425 580 387 600 363C620 339 640 329 660 340C680 351 700 383 720 386C740 389 760 363 780 360C800 357 820 377 840 387C860 397 880 397 890 397L900 397L900 335L890 336C880 337 860 339 840 333C820 327 800 313 780 314C760 315 740 331 720 318C700 305 680 263 660 246C640 229 620 237 600 271C580 305 560 365 540 386C520 407 500 389 480 367C460 345 440 319 420 307C400 295 380 297 360 300C340 303 320 307 300 302C280 297 260 283 240 284C220 285 200 301 180 312C160 323 140 329 120 341C100 353 80 371 60 374C40 377 20 365 10 359L0 353Z" fill="#5402d7"></path><path d="M0 517L10 522C20 527 40 537 60 542C80 547 100 547 120 551C140 555 160 563 180 561C200 559 220 547 240 547C260 547 280 559 300 564C320 569 340 567 360 565C380 563 400 561 420 559C440 557 460 555 480 556C500 557 520 561 540 562C560 563 580 561 600 556C620 551 640 543 660 544C680 545 700 555 720 552C740 549 760 533 780 528C800 523 820 529 840 531C860 533 880 531 890 530L900 529L900 395L890 395C880 395 860 395 840 385C820 375 800 355 780 358C760 361 740 387 720 384C700 381 680 349 660 338C640 327 620 337 600 361C580 385 560 423 540 441C520 459 500 457 480 444C460 431 440 407 420 397C400 387 380 391 360 388C340 385 320 375 300 368C280 361 260 357 240 361C220 365 200 377 180 389C160 401 140 413 120 419C100 425 80 425 60 422C40 419 20 413 10 410L0 407Z" fill="#4b04c2"></path><path d="M0 601L10 601C20 601 40 601 60 601C80 601 100 601 120 601C140 601 160 601 180 601C200 601 220 601 240 601C260 601 280 601 300 601C320 601 340 601 360 601C380 601 400 601 420 601C440 601 460 601 480 601C500 601 520 601 540 601C560 601 580 601 600 601C620 601 640 601 660 601C680 601 700 601 720 601C740 601 760 601 780 601C800 601 820 601 840 601C860 601 880 601 890 601L900 601L900 527L890 528C880 529 860 531 840 529C820 527 800 521 780 526C760 531 740 547 720 550C700 553 680 543 660 542C640 541 620 549 600 554C580 559 560 561 540 560C520 559 500 555 480 554C460 553 440 555 420 557C400 559 380 561 360 563C340 565 320 567 300 562C280 557 260 545 240 545C220 545 200 557 180 559C160 561 140 553 120 549C100 545 80 545 60 540C40 535 20 525 10 520L0 515Z" fill="#4305ad"></path></svg>