<svg id="visual" viewBox="0 0 900 600" width="900" height="600" xmlns="http://www.w3.org/2000/svg" xmlns:xlink="http://www.w3.org/1999/xlink" version="1.1"><path d="M0 133L13.7 145C27.3 157 54.7 181 82 198C109.3 215 136.7 225 163.8 209C191 193 218 151 245.2 151C272.3 151 299.7 193 327 221C354.3 249 381.7 263 409 238C436.3 213 463.7 149 491 124C518.3 99 545.7 113 573 139C600.3 165 627.7 203 654.8 218C682 233 709 225 736.2 233C763.3 241 790.7 265 818 248C845.3 231 872.7 173 886.3 144L900 115L900 0L886.3 0C872.7 0 845.3 0 818 0C790.7 0 763.3 0 736.2 0C709 0 682 0 654.8 0C627.7 0 600.3 0 573 0C545.7 0 518.3 0 491 0C463.7 0 436.3 0 409 0C381.7 0 354.3 0 327 0C299.7 0 272.3 0 245.2 0C218 0 191 0 163.8 0C136.7 0 109.3 0 82 0C54.7 0 27.3 0 13.7 0L0 0Z" fill="#ffffff"></path><path d="M0 253L13.7 261C27.3 269 54.7 285 82 298C109.3 311 136.7 321 163.8 298C191 275 218 219 245.2 214C272.3 209 299.7 255 327 285C354.3 315 381.7 329 409 316C436.3 303 463.7 263 491 243C518.3 223 545.7 223 573 238C600.3 253 627.7 283 654.8 307C682 331 709 349 736.2 356C763.3 363 790.7 359 818 326C845.3 293 872.7 231 886.3 200L900 169L900 113L886.3 142C872.7 171 845.3 229 818 246C790.7 263 763.3 239 736.2 231C709 223 682 231 654.8 216C627.7 201 600.3 163 573 137C545.7 111 518.3 97 491 122C463.7 147 436.3 211 409 236C381.7 261 354.3 247 327 219C299.7 191 272.3 149 245.2 149C218 149 191 191 163.8 207C136.7 223 109.3 213 82 196C54.7 179 27.3 155 13.7 143L0 131Z" fill="#b2dcee"></path><path d="M0 355L13.7 357C27.3 359 54.7 363 82 365C109.3 367 136.7 367 163.8 347C191 327 218 287 245.2 288C272.3 289 299.7 331 327 354C354.3 377 381.7 381 409 373C436.3 365 463.7 345 491 332C518.3 319 545.7 313 573 328C600.3 343 627.7 379 654.8 403C682 427 709 439 736.2 437C763.3 435 790.7 419 818 383C845.3 347 872.7 291 886.3 263L900 235L900 167L886.3 198C872.7 229 845.3 291 818 324C790.7 357 763.3 361 736.2 354C709 347 682 329 654.8 305C627.7 281 600.3 251 573 236C545.7 221 518.3 221 491 241C463.7 261 436.3 301 409 314C381.7 327 354.3 313 327 283C299.7 253 272.3 207 245.2 212C218 217 191 273 163.8 296C136.7 319 109.3 309 82 296C54.7 283 27.3 267 13.7 259L0 251Z" fill="#7ec8e3"></path><path d="M0 469L13.7 463C27.3 457 54.7 445 82 449C109.3 453 136.7 473 163.8 451C191 429 218 365 245.2 354C272.3 343 299.7 385 327 417C354.3 449 381.7 471 409 470C436.3 469 463.7 445 491 422C518.3 399 545.7 377 573 383C600.3 389 627.7 423 654.8 446C682 469 709 481 736.2 485C763.3 489 790.7 485 818 460C845.3 435 872.7 389 886.3 366L900 343L900 233L886.3 261C872.7 289 845.3 345 818 381C790.7 417 763.3 433 736.2 435C709 437 682 425 654.8 401C627.7 377 600.3 341 573 326C545.7 311 518.3 317 491 330C463.7 343 436.3 363 409 371C381.7 379 354.3 375 327 352C299.7 329 272.3 287 245.2 286C218 285 191 325 163.8 345C136.7 365 109.3 365 82 363C54.7 361 27.3 357 13.7 355L0 353Z" fill="#b2dcee"></path><path d="M0 601L13.7 601C27.3 601 54.7 601 82 601C109.3 601 136.7 601 163.8 601C191 601 218 601 245.2 601C272.3 601 299.7 601 327 601C354.3 601 381.7 601 409 601C436.3 601 463.7 601 491 601C518.3 601 545.7 601 573 601C600.3 601 627.7 601 654.8 601C682 601 709 601 736.2 601C763.3 601 790.7 601 818 601C845.3 601 872.7 601 886.3 601L900 601L900 341L886.3 364C872.7 387 845.3 433 818 458C790.7 483 763.3 487 736.2 483C709 479 682 467 654.8 444C627.7 421 600.3 387 573 381C545.7 375 518.3 397 491 420C463.7 443 436.3 467 409 468C381.7 469 354.3 447 327 415C299.7 383 272.3 341 245.2 352C218 363 191 427 163.8 449C136.7 471 109.3 451 82 447C54.7 443 27.3 455 13.7 461L0 467Z" fill="#ffffff"></path></svg>